<svg width="23" height="22" viewBox="0 0 23 22" fill="none" xmlns="http://www.w3.org/2000/svg">
<g opacity="0.4" clip-path="url(#clip0_470_2230)">
<path d="M16.4619 1.8335H7.30176C4.77225 1.8335 2.72168 3.88552 2.72168 6.41683V15.5835C2.72168 18.1148 4.77225 20.1668 7.30176 20.1668H16.4619C18.9914 20.1668 21.042 18.1148 21.042 15.5835V6.41683C21.042 3.88552 18.9914 1.8335 16.4619 1.8335Z" stroke="white" stroke-width="2" stroke-linecap="round" stroke-linejoin="round"/>
<path d="M15.5463 10.4223C15.6594 11.1852 15.5291 11.9643 15.1742 12.6489C14.8192 13.3334 14.2576 13.8886 13.5692 14.2353C12.8808 14.5821 12.1007 14.7028 11.3398 14.5802C10.5789 14.4577 9.87595 14.0982 9.331 13.5529C8.78604 13.0075 8.42679 12.3041 8.30435 11.5426C8.18191 10.7812 8.30252 10.0005 8.64901 9.31163C8.9955 8.62274 9.55024 8.06072 10.2343 7.70551C10.9184 7.3503 11.697 7.21999 12.4593 7.33312C13.237 7.44852 13.9569 7.81113 14.5128 8.3674C15.0686 8.92367 15.431 9.64411 15.5463 10.4223Z" stroke="white" stroke-width="2" stroke-linecap="round" stroke-linejoin="round"/>
<path d="M16.9199 5.9585H16.9299" stroke="white" stroke-width="2" stroke-linecap="round" stroke-linejoin="round"/>
</g>
<defs>
<clipPath id="clip0_470_2230">
<rect width="21.9844" height="22" fill="white" transform="translate(0.889648)"/>
</clipPath>
</defs>
</svg>
