<svg width="23" height="22" viewBox="0 0 23 22" fill="none" xmlns="http://www.w3.org/2000/svg">
<g clip-path="url(#clip0_470_2238)">
<path d="M15.6194 7.3335C17.077 7.3335 18.475 7.91296 19.5057 8.94441C20.5364 9.97586 21.1155 11.3748 21.1155 12.8335V19.2502H17.4514V12.8335C17.4514 12.3473 17.2584 11.881 16.9148 11.5371C16.5713 11.1933 16.1053 11.0002 15.6194 11.0002C15.1335 11.0002 14.6675 11.1933 14.3239 11.5371C13.9804 11.881 13.7874 12.3473 13.7874 12.8335V19.2502H10.1233V12.8335C10.1233 11.3748 10.7023 9.97586 11.7331 8.94441C12.7638 7.91296 14.1617 7.3335 15.6194 7.3335V7.3335Z" stroke="white" stroke-width="2" stroke-linecap="round" stroke-linejoin="round"/>
<path d="M6.45923 8.25H2.79517V19.25H6.45923V8.25Z" stroke="white" stroke-width="2" stroke-linecap="round" stroke-linejoin="round"/>
<path d="M4.6272 5.50016C5.639 5.50016 6.45923 4.67935 6.45923 3.66683C6.45923 2.65431 5.639 1.8335 4.6272 1.8335C3.61539 1.8335 2.79517 2.65431 2.79517 3.66683C2.79517 4.67935 3.61539 5.50016 4.6272 5.50016Z" stroke="white" stroke-width="2" stroke-linecap="round" stroke-linejoin="round"/>
</g>
<defs>
<clipPath id="clip0_470_2238">
<rect width="21.9844" height="22" fill="white" transform="translate(0.963135)"/>
</clipPath>
</defs>
</svg>
