<svg width="23" height="22" viewBox="0 0 23 22" fill="none" xmlns="http://www.w3.org/2000/svg">
<g opacity="0.4" clip-path="url(#clip0_470_2234)">
<path d="M21.9942 2.75922C21.117 3.37841 20.1457 3.85198 19.1179 4.16172C18.5662 3.52694 17.833 3.07702 17.0175 2.87282C16.2019 2.66861 15.3434 2.71998 14.558 3.01997C13.7726 3.31995 13.0982 3.85409 12.626 4.55012C12.1539 5.24616 11.9067 6.07053 11.918 6.91172V7.82838C10.3082 7.87016 8.71309 7.51288 7.2747 6.78838C5.83631 6.06387 4.5993 4.99463 3.67383 3.67588C3.67383 3.67588 0.00976455 11.9259 8.25391 15.5926C6.3674 16.874 4.12007 17.5166 1.8418 17.4259C10.0859 22.0092 20.1621 17.4259 20.1621 6.88422C20.1613 6.62888 20.1367 6.37418 20.0888 6.12338C21.0237 5.20075 21.6835 4.03587 21.9942 2.75922V2.75922Z" stroke="white" stroke-width="2" stroke-linecap="round" stroke-linejoin="round"/>
</g>
<defs>
<clipPath id="clip0_470_2234">
<rect width="21.9844" height="22" fill="white" transform="translate(0.925781)"/>
</clipPath>
</defs>
</svg>
